{
    "asset" : {
        "generator" : "Khronos glTF Blender I/O v0.9.36",
        "version" : "2.0"
    },
    "scene" : 0,
    "scenes" : [
        {
            "name" : "Scene",
            "nodes" : [
                0
            ]
        }
    ],
    "nodes" : [
        {
            "mesh" : 0,
            "name" : "tower_room.004"
        }
    ],
    "materials" : [
        {
            "doubleSided" : true,
            "name" : "stage_tower",
            "pbrMetallicRoughness" : {
                "baseColorTexture" : {
                    "index" : 0,
                    "texCoord" : 2
                },
                "metallicFactor" : 0,
                "roughnessFactor" : 0.5
            }
        }
    ],
    "meshes" : [
        {
            "name" : "Icosphere.009",
            "primitives" : [
                {
                    "attributes" : {
                        "POSITION" : 0,
                        "NORMAL" : 1,
                        "TEXCOORD_0" : 2
                    },
                    "indices" : 3,
                    "material" : 0
                }
            ]
        }
    ],
    "textures" : [
        {
            "source" : 0
        }
    ],
    "images" : [
        {
            "bufferView" : 4,
            "mimeType" : "image/jpeg",
            "name" : "stage_tower@512"
        }
    ],
    "accessors" : [
        {
            "bufferView" : 0,
            "componentType" : 5126,
            "count" : 15724,
            "max" : [
                10.000001907348633,
                23.417903900146484,
                10.000000953674316
            ],
            "min" : [
                -9.999998092651367,
                -0.011122504249215126,
                -9.999999046325684
            ],
            "type" : "VEC3"
        },
        {
            "bufferView" : 1,
            "componentType" : 5126,
            "count" : 15724,
            "type" : "VEC3"
        },
        {
            "bufferView" : 2,
            "componentType" : 5126,
            "count" : 15724,
            "type" : "VEC2"
        },
        {
            "bufferView" : 3,
            "componentType" : 5123,
            "count" : 23832,
            "type" : "SCALAR"
        }
    ],
    "bufferViews" : [
        {
            "buffer" : 0,
            "byteLength" : 188688,
            "byteOffset" : 0
        },
        {
            "buffer" : 0,
            "byteLength" : 188688,
            "byteOffset" : 188688
        },
        {
            "buffer" : 0,
            "byteLength" : 125792,
            "byteOffset" : 377376
        },
        {
            "buffer" : 0,
            "byteLength" : 47664,
            "byteOffset" : 503168
        },
        {
            "buffer" : 0,
            "byteLength" : 119799,
            "byteOffset" : 550832
        }
    ],
    "buffers" : [
        {
            "byteLength" : 670632,
            "uri" : "data:application/octet-stream;base64,"
        }
    ]
}
