# Blender v2.79 (sub 0) OBJ File: 'dome14.blend'
# www.blender.org
mtllib dome14.mtl
o Icosphere
v 0.000000 414.213989 0.000000
v 52.110580 404.123657 160.382599
v 109.752403 368.887939 337.788849
v 170.289246 302.427124 524.105286
v 229.746948 203.007446 707.100342
v 283.816437 75.372559 873.511963
v 329.259430 -70.127075 1013.373596
v 1065.527710 -70.133423 0.000000
v 918.469788 75.367188 0.000000
v 743.494507 203.003418 0.000000
v 551.081665 302.424805 0.000000
v 355.175629 368.886963 0.000000
v 168.637955 404.123291 0.000000
v -136.430023 404.123535 99.121048
v -287.341309 368.887939 208.763245
v -445.832001 302.427002 323.912109
v -601.497253 203.007080 437.008209
v -743.055847 75.372192 539.855347
v -862.029419 -70.127625 626.293701
v -136.430023 404.123535 -99.121048
v -287.341309 368.887939 -208.763245
v -445.832001 302.427002 -323.912109
v -601.497253 203.007080 -437.008209
v -743.055847 75.372192 -539.855347
v -862.029419 -70.127625 -626.293701
v 52.110580 404.123657 -160.382599
v 109.752403 368.887939 -337.788849
v 170.289246 302.427124 -524.105286
v 229.746948 203.007446 -707.100342
v 283.816437 75.372559 -873.511963
v 329.259430 -70.127075 -1013.373596
v 235.039062 384.050903 -170.765289
v 434.400269 333.898071 -178.923355
v 304.402222 333.898804 -357.846680
v 638.340637 248.544189 -183.466919
v 511.663116 264.914185 -371.744507
v 371.742889 248.546143 -550.400757
v 831.250793 129.319702 -183.467239
v 716.622742 159.531006 -376.750275
v 579.758118 159.532227 -565.125427
v 431.354431 129.323242 -733.869080
v 998.799622 -14.918030 -178.924408
v 902.542236 23.339417 -371.746094
v 777.829163 37.118530 -565.126709
v 632.449463 23.341614 -743.492126
v 478.808289 -14.913574 -894.622070
v 1056.935547 -131.189087 -357.849609
v 950.474609 -109.127075 -550.404236
v 817.175720 -109.126160 -733.872192
v 666.942017 -131.186035 -894.623901
v -89.778038 384.051147 -276.303162
v -35.932289 333.899048 -468.426239
v -246.268738 333.899048 -400.082733
v 22.766270 248.546509 -663.788147
v -195.440506 264.915283 -601.492859
v -408.589020 248.546387 -523.630066
v 82.377380 129.323608 -847.256592
v -136.866486 159.533203 -797.967102
v -358.313995 159.533203 -726.013245
v -564.656677 129.323242 -637.018860
v 138.472672 -14.913208 -1005.201721
v -74.655746 23.342651 -973.240723
v -297.108734 37.120361 -914.389893
v -511.667816 23.342468 -831.244446
v -702.877563 -14.913574 -731.825745
v -13.729805 -131.185059 -1115.783691
v -229.757141 -109.124390 -1074.036011
v -445.435913 -109.124390 -1003.956604
v -644.743408 -131.185364 -910.751404
v -290.524139 384.050903 0.000000
v -456.604950 333.898438 -110.579674
v -456.604950 333.898438 110.579674
v -624.266235 248.545532 -226.775330
v -632.450439 264.914185 0.000016
v -624.266235 248.545532 226.775330
v -780.334045 129.322266 -340.163544
v -801.207886 159.531494 -116.420959
v -801.207886 159.531494 116.420959
v -780.334045 129.322266 340.163544
v -913.214111 -14.914612 -442.320709
v -948.678284 23.340637 -229.749008
v -961.450562 37.118042 0.000000
v -948.678284 23.340637 229.749023
v -913.214111 -14.914612 442.320709
v -1065.416992 -131.187256 -331.740692
v -1092.469360 -109.126953 -113.388008
v -1092.469360 -109.126953 113.388023
v -1065.416992 -131.187256 331.740692
v -89.778030 384.051147 276.303162
v -246.268738 333.899048 400.082764
v -35.932293 333.899048 468.426331
v -408.588989 248.546387 523.630005
v -195.440475 264.915283 601.492737
v 22.766270 248.546509 663.788086
v -564.656677 129.323242 637.018860
v -358.313995 159.533203 726.013245
v -136.866470 159.533325 797.967102
v 82.377388 129.323608 847.256470
v -702.877441 -14.913574 731.825745
v -511.667786 23.342590 831.244507
v -297.108734 37.120361 914.389893
v -74.655739 23.342773 973.240723
v 138.472672 -14.913208 1005.201660
v -644.743347 -131.185425 910.751404
v -445.435883 -109.124390 1003.956665
v -229.757111 -109.124390 1074.036133
v -13.729753 -131.185120 1115.783691
v 235.039062 384.050903 170.765289
v 304.402252 333.898926 357.846680
v 434.400299 333.898071 178.923340
v 371.742859 248.546143 550.400696
v 511.663055 264.914185 371.744476
v 638.340637 248.544189 183.466919
v 431.354401 129.323120 733.869080
v 579.758179 159.532227 565.125488
v 716.622803 159.531006 376.750305
v 831.250854 129.319702 183.467270
v 478.808228 -14.913574 894.621948
v 632.449402 23.341675 743.492126
v 777.829163 37.118652 565.126770
v 902.542175 23.339478 371.746094
v 998.799561 -14.917969 178.924408
v 666.942017 -131.185974 894.623840
v 817.175720 -109.125977 733.872131
v 950.474609 -109.127014 550.404175
v 1056.935547 -131.189026 357.849518
v 348.036377 -150.000061 1071.163940
v 1126.286499 -150.000061 0.000000
v -911.188599 -150.000061 662.009521
v -911.188599 -150.000061 -662.009521
v 348.036377 -150.000061 -1071.163940
v 1092.968018 -150.000061 -269.011597
v 593.570557 -150.000061 -956.357666
v 1118.911133 -150.000061 -135.478806
v 1114.931519 -150.000061 -171.855484
v 507.972473 -150.000061 -1007.259338
v 474.614166 -150.000061 -1022.281494
v 1070.985352 -150.000061 -355.468201
v 1061.402710 -150.000061 -381.184082
v 986.686462 -150.000061 -543.518127
v 956.790588 -150.000061 -593.864624
v 860.462891 -150.000061 -726.447510
v 821.817993 -150.000061 -770.439514
v 690.519348 -150.000061 -891.660706
v 669.019592 -150.000061 -908.724060
v 81.918152 -150.000061 -1122.602173
v -726.130005 -150.000061 -860.047241
v 216.900192 -150.000061 -1106.016602
v 181.083740 -150.000061 -1113.470459
v -800.989685 -150.000061 -794.369629
v -825.584656 -150.000061 -767.286133
v -7.122263 -150.000061 -1128.412842
v -34.546638 -150.000061 -1127.245361
v -212.017975 -150.000061 -1106.349854
v -269.142120 -150.000061 -1093.473877
v -424.998596 -150.000061 -1042.832153
v -478.781036 -150.000061 -1019.671753
v -634.639648 -150.000061 -932.259644
v -657.512146 -150.000061 -917.084534
v -1042.347046 -150.000061 -424.804657
v -1042.347046 -150.000061 424.804657
v -984.857300 -150.000061 -548.063904
v -1003.015198 -150.000061 -516.302124
v -1003.015198 -150.000061 516.302124
v -984.857300 -150.000061 548.063904
v -1075.385010 -150.000061 -341.926239
v -1082.748413 -150.000061 -315.486755
v -1117.718262 -150.000061 -140.242752
v -1123.124512 -150.000061 -81.939819
v -1123.124512 -150.000061 81.939819
v -1117.718262 -150.000061 140.242752
v -1082.748413 -150.000061 315.486755
v -1075.385010 -150.000061 341.926239
v -726.129639 -150.000061 860.047485
v 81.918037 -150.000061 1122.602173
v -825.584717 -150.000061 767.286011
v -800.989563 -150.000061 794.369568
v 181.083771 -150.000061 1113.470459
v 216.900223 -150.000061 1106.016602
v -657.512024 -150.000061 917.084473
v -634.639648 -150.000061 932.259583
v -478.781006 -150.000061 1019.671814
v -424.998596 -150.000061 1042.832275
v -269.142120 -150.000061 1093.473877
v -212.017960 -150.000061 1106.349976
v -34.546539 -150.000061 1127.245361
v -7.122242 -150.000061 1128.412842
v 593.570435 -150.000061 956.357788
v 1092.968018 -150.000061 269.011353
v 474.614166 -150.000061 1022.281494
v 507.972473 -150.000061 1007.259338
v 1114.931396 -150.000061 171.855438
v 1118.911133 -150.000061 135.478760
v 669.019592 -150.000061 908.724060
v 690.519409 -150.000061 891.660645
v 821.817993 -150.000061 770.439575
v 860.463013 -150.000061 726.447449
v 956.790527 -150.000061 593.864624
v 986.686462 -150.000061 543.518127
v 1061.402710 -150.000061 381.184052
v 1070.985352 -150.000061 355.468109
vn 0.0597 0.9973 -0.0434
vn 0.1854 0.9817 -0.0433
vn 0.3210 0.9461 -0.0429
vn 0.4586 0.8876 -0.0425
vn 0.5888 0.8072 -0.0425
vn 0.7027 0.7102 -0.0429
vn 0.7951 0.6049 -0.0433
vn 0.1045 0.9916 -0.0759
vn 0.0985 0.9817 -0.1630
vn 0.2399 0.9672 -0.0829
vn 0.2339 0.9573 -0.1699
vn 0.1530 0.9672 -0.2026
vn 0.1400 0.9461 -0.2920
vn 0.3829 0.9196 -0.0879
vn 0.3768 0.9097 -0.1745
vn 0.2955 0.9309 -0.2147
vn 0.2824 0.9097 -0.3045
vn 0.2020 0.9196 -0.3370
vn 0.1822 0.8876 -0.4230
vn 0.5236 0.8472 -0.0898
vn 0.5175 0.8374 -0.1760
vn 0.4416 0.8694 -0.2215
vn 0.4285 0.8482 -0.3113
vn 0.3472 0.8694 -0.3515
vn 0.3273 0.8374 -0.4378
vn 0.2472 0.8472 -0.4702
vn 0.2224 0.8072 -0.5468
vn 0.6513 0.7537 -0.0879
vn 0.6451 0.7439 -0.1745
vn 0.5801 0.7838 -0.2215
vn 0.5670 0.7626 -0.3113
vn 0.4911 0.7947 -0.3568
vn 0.4713 0.7626 -0.4431
vn 0.3900 0.7838 -0.4833
vn 0.3653 0.7439 -0.5596
vn 0.2849 0.7537 -0.5922
vn 0.2579 0.7102 -0.6550
vn 0.7516 0.6373 -0.1699
vn 0.7005 0.6806 -0.2147
vn 0.6874 0.6594 -0.3045
vn 0.6224 0.6993 -0.3515
vn 0.6026 0.6673 -0.4378
vn 0.5267 0.6993 -0.4833
vn 0.5020 0.6594 -0.5596
vn 0.4206 0.6806 -0.5999
vn 0.2869 0.6049 -0.7428
vn 0.7967 0.5694 -0.2026
vn 0.7836 0.5483 -0.2920
vn 0.7124 0.5599 -0.4230
vn 0.6225 0.5599 -0.5468
vn 0.5199 0.5483 -0.6550
vn -0.0228 0.9973 -0.0701
vn 0.0161 0.9817 -0.1897
vn 0.0584 0.9461 -0.3185
vn 0.1013 0.8876 -0.4493
vn 0.1415 0.8072 -0.5731
vn 0.1763 0.7102 -0.6815
vn 0.2045 0.6049 -0.7696
vn -0.0399 0.9916 -0.1228
vn -0.1246 0.9817 -0.1440
vn -0.0047 0.9672 -0.2538
vn -0.0893 0.9573 -0.2749
vn -0.1454 0.9672 -0.2081
vn -0.2345 0.9461 -0.2234
vn 0.0347 0.9196 -0.3913
vn -0.0495 0.9097 -0.4123
vn -0.1129 0.9309 -0.3473
vn -0.2023 0.9097 -0.3626
vn -0.2581 0.9196 -0.2962
vn -0.3460 0.8876 -0.3040
vn 0.0764 0.8472 -0.5257
vn -0.0075 0.8374 -0.5466
vn -0.0742 0.8694 -0.4885
vn -0.1637 0.8482 -0.5037
vn -0.2271 0.8694 -0.4388
vn -0.3152 0.8374 -0.4466
vn -0.3708 0.8472 -0.3804
vn -0.4513 0.8072 -0.3805
vn 0.1176 0.7537 -0.6466
vn 0.0334 0.7439 -0.6675
vn -0.0314 0.7838 -0.6202
vn -0.1209 0.7626 -0.6355
vn -0.1876 0.7947 -0.5773
vn -0.2757 0.7626 -0.5852
vn -0.3391 0.7838 -0.5202
vn -0.4194 0.7439 -0.5203
vn -0.4752 0.7537 -0.4539
vn -0.5433 0.7102 -0.4477
vn 0.0707 0.6373 -0.7674
vn 0.0123 0.6806 -0.7326
vn -0.0772 0.6594 -0.7478
vn -0.1420 0.6993 -0.7005
vn -0.2302 0.6673 -0.7084
vn -0.2969 0.6993 -0.6502
vn -0.3771 0.6594 -0.6504
vn -0.4406 0.6806 -0.5854
vn -0.6178 0.6049 -0.5024
vn 0.0535 0.5694 -0.8203
vn -0.0356 0.5483 -0.8355
vn -0.1822 0.5599 -0.8083
vn -0.3277 0.5599 -0.7610
vn -0.4623 0.5483 -0.6968
vn -0.0738 0.9973 0.0000
vn -0.1755 0.9817 -0.0740
vn -0.2849 0.9461 -0.1540
vn -0.3960 0.8876 -0.2352
vn -0.5013 0.8072 -0.3117
vn -0.5937 0.7102 -0.3783
vn -0.6687 0.6049 -0.4323
vn -0.1292 0.9916 0.0000
vn -0.1755 0.9817 0.0740
vn -0.2428 0.9672 -0.0740
vn -0.2891 0.9573 0.0000
vn -0.2428 0.9672 0.0740
vn -0.2849 0.9461 0.1540
vn -0.3615 0.9196 -0.1539
vn -0.4074 0.9097 -0.0804
vn -0.3652 0.9309 0.0000
vn -0.4074 0.9097 0.0804
vn -0.3615 0.9196 0.1539
vn -0.3960 0.8876 0.2352
vn -0.4764 0.8472 -0.2351
vn -0.5222 0.8374 -0.1618
vn -0.4875 0.8694 -0.0803
vn -0.5297 0.8482 0.0000
vn -0.4875 0.8694 0.0803
vn -0.5222 0.8374 0.1618
vn -0.4764 0.8472 0.2351
vn -0.5013 0.8072 0.3117
vn -0.5786 0.7537 -0.3116
vn -0.6245 0.7439 -0.2381
vn -0.5996 0.7838 -0.1618
vn -0.6417 0.7626 -0.0814
vn -0.6071 0.7947 0.0000
vn -0.6417 0.7626 0.0814
vn -0.5996 0.7838 0.1618
vn -0.6245 0.7439 0.2381
vn -0.5786 0.7537 0.3116
vn -0.5937 0.7102 0.3783
vn -0.7080 0.6373 -0.3043
vn -0.6929 0.6806 -0.2381
vn -0.7351 0.6594 -0.1577
vn -0.7101 0.6993 -0.0814
vn -0.7448 0.6673 0.0000
vn -0.7101 0.6993 0.0814
vn -0.7351 0.6594 0.1577
vn -0.6929 0.6806 0.2381
vn -0.6687 0.6049 0.4323
vn -0.7636 0.5694 -0.3044
vn -0.8056 0.5483 -0.2244
vn -0.8250 0.5599 -0.0765
vn -0.8250 0.5599 0.0765
vn -0.8056 0.5483 0.2244
vn -0.0228 0.9973 0.0701
vn -0.1246 0.9817 0.1440
vn -0.2345 0.9461 0.2234
vn -0.3460 0.8876 0.3040
vn -0.4513 0.8072 0.3805
vn -0.5433 0.7102 0.4477
vn -0.6178 0.6049 0.5024
vn -0.0399 0.9916 0.1228
vn 0.0161 0.9817 0.1897
vn -0.1454 0.9672 0.2081
vn -0.0893 0.9573 0.2749
vn -0.0047 0.9672 0.2538
vn 0.0584 0.9461 0.3185
vn -0.2581 0.9196 0.2962
vn -0.2023 0.9097 0.3626
vn -0.1129 0.9309 0.3473
vn -0.0495 0.9097 0.4123
vn 0.0347 0.9196 0.3913
vn 0.1013 0.8876 0.4493
vn -0.3708 0.8472 0.3804
vn -0.3152 0.8374 0.4466
vn -0.2271 0.8694 0.4388
vn -0.1637 0.8482 0.5037
vn -0.0742 0.8694 0.4885
vn -0.0075 0.8374 0.5466
vn 0.0764 0.8472 0.5257
vn 0.1415 0.8072 0.5731
vn -0.4752 0.7537 0.4539
vn -0.4194 0.7439 0.5203
vn -0.3391 0.7838 0.5202
vn -0.2757 0.7626 0.5852
vn -0.1876 0.7947 0.5773
vn -0.1209 0.7626 0.6355
vn -0.0314 0.7838 0.6202
vn 0.0334 0.7439 0.6675
vn 0.1176 0.7537 0.6466
vn 0.1763 0.7102 0.6815
vn -0.5082 0.6373 0.5793
vn -0.4406 0.6806 0.5854
vn -0.3771 0.6594 0.6504
vn -0.2969 0.6993 0.6502
vn -0.2302 0.6673 0.7084
vn -0.1420 0.6993 0.7005
vn -0.0772 0.6594 0.7478
vn 0.0123 0.6806 0.7326
vn 0.2045 0.6049 0.7696
vn -0.5255 0.5694 0.6322
vn -0.4623 0.5483 0.6968
vn -0.3277 0.5599 0.7610
vn -0.1822 0.5599 0.8083
vn -0.0356 0.5483 0.8355
vn 0.0597 0.9973 0.0434
vn 0.0985 0.9817 0.1630
vn 0.1400 0.9461 0.2920
vn 0.1822 0.8876 0.4230
vn 0.2224 0.8072 0.5468
vn 0.2579 0.7102 0.6550
vn 0.2869 0.6049 0.7428
vn 0.1045 0.9916 0.0759
vn 0.1854 0.9817 0.0433
vn 0.1530 0.9672 0.2026
vn 0.2339 0.9573 0.1699
vn 0.2399 0.9672 0.0829
vn 0.3210 0.9461 0.0429
vn 0.2020 0.9196 0.3370
vn 0.2824 0.9097 0.3045
vn 0.2955 0.9309 0.2147
vn 0.3768 0.9097 0.1745
vn 0.3829 0.9196 0.0879
vn 0.4586 0.8876 0.0425
vn 0.2472 0.8472 0.4702
vn 0.3273 0.8374 0.4378
vn 0.3472 0.8694 0.3515
vn 0.4285 0.8482 0.3113
vn 0.4416 0.8694 0.2215
vn 0.5175 0.8374 0.1760
vn 0.5236 0.8472 0.0898
vn 0.5888 0.8072 0.0425
vn 0.2849 0.7537 0.5922
vn 0.3653 0.7439 0.5596
vn 0.3900 0.7838 0.4833
vn 0.4713 0.7626 0.4431
vn 0.4911 0.7947 0.3568
vn 0.5670 0.7626 0.3113
vn 0.5801 0.7838 0.2215
vn 0.6451 0.7439 0.1745
vn 0.6513 0.7537 0.0879
vn 0.7027 0.7102 0.0429
vn 0.3939 0.6373 0.6623
vn 0.4206 0.6806 0.5999
vn 0.5020 0.6594 0.5596
vn 0.5267 0.6993 0.4833
vn 0.6026 0.6673 0.4378
vn 0.6224 0.6993 0.3515
vn 0.6874 0.6594 0.3045
vn 0.7005 0.6806 0.2147
vn 0.7951 0.6049 0.0433
vn 0.4388 0.5694 0.6951
vn 0.5199 0.5483 0.6550
vn 0.6225 0.5599 0.5468
vn 0.7124 0.5599 0.4230
vn 0.7836 0.5483 0.2920
vn 0.7322 0.5919 0.3370
vn 0.6472 0.6000 0.4702
vn 0.5468 0.5919 0.5922
vn 0.7578 0.6472 0.0829
vn 0.3130 0.6472 0.6951
vn 0.7516 0.6373 0.1699
vn 0.7967 0.5694 0.2026
vn -0.0942 0.5919 0.8005
vn -0.2472 0.6000 0.7608
vn -0.3943 0.5919 0.7030
vn 0.1553 0.6472 0.7463
vn -0.5644 0.6472 0.5125
vn 0.0707 0.6373 0.7674
vn 0.0535 0.5694 0.8203
vn -0.7904 0.5919 0.1577
vn -0.8000 0.6000 0.0000
vn -0.7904 0.5919 -0.1577
vn -0.6618 0.6472 0.3784
vn -0.6618 0.6472 -0.3784
vn -0.7080 0.6373 0.3043
vn -0.7636 0.5694 0.3044
vn -0.3943 0.5919 -0.7030
vn -0.2472 0.6000 -0.7608
vn -0.0942 0.5919 -0.8005
vn -0.5644 0.6472 -0.5125
vn 0.1553 0.6472 -0.7463
vn -0.5082 0.6373 -0.5793
vn -0.5255 0.5694 -0.6322
vn 0.5468 0.5919 -0.5922
vn 0.6472 0.6000 -0.4702
vn 0.7322 0.5919 -0.3370
vn 0.3130 0.6472 -0.6951
vn 0.7578 0.6472 -0.0829
vn 0.3939 0.6373 -0.6623
vn 0.4388 0.5694 -0.6951
usemtl None
s off
f 13//1 26//1 1//1
f 12//2 32//2 13//2
f 11//3 33//3 12//3
f 10//4 35//4 11//4
f 9//5 38//5 10//5
f 8//6 42//6 9//6
f 128//7 134//7 8//7
f 13//8 32//8 26//8
f 32//9 27//9 26//9
f 12//10 33//10 32//10
f 33//11 34//11 32//11
f 32//12 34//12 27//12
f 34//13 28//13 27//13
f 11//14 35//14 33//14
f 35//15 36//15 33//15
f 33//16 36//16 34//16
f 36//17 37//17 34//17
f 34//18 37//18 28//18
f 37//19 29//19 28//19
f 10//20 38//20 35//20
f 38//21 39//21 35//21
f 35//22 39//22 36//22
f 39//23 40//23 36//23
f 36//24 40//24 37//24
f 40//25 41//25 37//25
f 37//26 41//26 29//26
f 41//27 30//27 29//27
f 9//28 42//28 38//28
f 42//29 43//29 38//29
f 38//30 43//30 39//30
f 43//31 44//31 39//31
f 39//32 44//32 40//32
f 44//33 45//33 40//33
f 40//34 45//34 41//34
f 45//35 46//35 41//35
f 41//36 46//36 30//36
f 46//37 31//37 30//37
f 132//38 47//38 42//38 135//38
f 42//39 47//39 43//39
f 47//40 48//40 43//40
f 43//41 48//41 44//41
f 48//42 49//42 44//42
f 44//43 49//43 45//43
f 49//44 50//44 45//44
f 45//45 50//45 46//45
f 137//46 131//46 31//46
f 132//47 138//47 47//47
f 138//48 139//48 47//48
f 140//49 141//49 48//49
f 142//50 143//50 49//50
f 144//51 145//51 50//51
f 26//52 20//52 1//52
f 27//53 51//53 26//53
f 28//54 52//54 27//54
f 29//55 54//55 28//55
f 30//56 57//56 29//56
f 31//57 61//57 30//57
f 131//58 148//58 31//58
f 26//59 51//59 20//59
f 51//60 21//60 20//60
f 27//61 52//61 51//61
f 52//62 53//62 51//62
f 51//63 53//63 21//63
f 53//64 22//64 21//64
f 28//65 54//65 52//65
f 54//66 55//66 52//66
f 52//67 55//67 53//67
f 55//68 56//68 53//68
f 53//69 56//69 22//69
f 56//70 23//70 22//70
f 29//71 57//71 54//71
f 57//72 58//72 54//72
f 54//73 58//73 55//73
f 58//74 59//74 55//74
f 55//75 59//75 56//75
f 59//76 60//76 56//76
f 56//77 60//77 23//77
f 60//78 24//78 23//78
f 30//79 61//79 57//79
f 61//80 62//80 57//80
f 57//81 62//81 58//81
f 62//82 63//82 58//82
f 58//83 63//83 59//83
f 63//84 64//84 59//84
f 59//85 64//85 60//85
f 64//86 65//86 60//86
f 60//87 65//87 24//87
f 65//88 25//88 24//88
f 146//89 66//89 61//89 149//89
f 61//90 66//90 62//90
f 66//91 67//91 62//91
f 62//92 67//92 63//92
f 67//93 68//93 63//93
f 63//94 68//94 64//94
f 68//95 69//95 64//95
f 64//96 69//96 65//96
f 151//97 130//97 25//97
f 146//98 152//98 66//98
f 152//99 153//99 66//99
f 154//100 155//100 67//100
f 156//101 157//101 68//101
f 158//102 159//102 69//102
f 20//103 14//103 1//103
f 21//104 70//104 20//104
f 22//105 71//105 21//105
f 23//106 73//106 22//106
f 24//107 76//107 23//107
f 25//108 80//108 24//108
f 130//109 162//109 25//109
f 20//110 70//110 14//110
f 70//111 15//111 14//111
f 21//112 71//112 70//112
f 71//113 72//113 70//113
f 70//114 72//114 15//114
f 72//115 16//115 15//115
f 22//116 73//116 71//116
f 73//117 74//117 71//117
f 71//118 74//118 72//118
f 74//119 75//119 72//119
f 72//120 75//120 16//120
f 75//121 17//121 16//121
f 23//122 76//122 73//122
f 76//123 77//123 73//123
f 73//124 77//124 74//124
f 77//125 78//125 74//125
f 74//126 78//126 75//126
f 78//127 79//127 75//127
f 75//128 79//128 17//128
f 79//129 18//129 17//129
f 24//130 80//130 76//130
f 80//131 81//131 76//131
f 76//132 81//132 77//132
f 81//133 82//133 77//133
f 77//134 82//134 78//134
f 82//135 83//135 78//135
f 78//136 83//136 79//136
f 83//137 84//137 79//137
f 79//138 84//138 18//138
f 84//139 19//139 18//139
f 160//140 85//140 80//140 163//140
f 80//141 85//141 81//141
f 85//142 86//142 81//142
f 81//143 86//143 82//143
f 86//144 87//144 82//144
f 82//145 87//145 83//145
f 87//146 88//146 83//146
f 83//147 88//147 84//147
f 165//148 129//148 19//148
f 160//149 166//149 85//149
f 166//150 167//150 85//150
f 168//151 169//151 86//151
f 170//152 171//152 87//152
f 172//153 173//153 88//153
f 14//154 2//154 1//154
f 15//155 89//155 14//155
f 16//156 90//156 15//156
f 17//157 92//157 16//157
f 18//158 95//158 17//158
f 19//159 99//159 18//159
f 129//160 176//160 19//160
f 14//161 89//161 2//161
f 89//162 3//162 2//162
f 15//163 90//163 89//163
f 90//164 91//164 89//164
f 89//165 91//165 3//165
f 91//166 4//166 3//166
f 16//167 92//167 90//167
f 92//168 93//168 90//168
f 90//169 93//169 91//169
f 93//170 94//170 91//170
f 91//171 94//171 4//171
f 94//172 5//172 4//172
f 17//173 95//173 92//173
f 95//174 96//174 92//174
f 92//175 96//175 93//175
f 96//176 97//176 93//176
f 93//177 97//177 94//177
f 97//178 98//178 94//178
f 94//179 98//179 5//179
f 98//180 6//180 5//180
f 18//181 99//181 95//181
f 99//182 100//182 95//182
f 95//183 100//183 96//183
f 100//184 101//184 96//184
f 96//185 101//185 97//185
f 101//186 102//186 97//186
f 97//187 102//187 98//187
f 102//188 103//188 98//188
f 98//189 103//189 6//189
f 103//190 7//190 6//190
f 174//191 104//191 99//191 177//191
f 99//192 104//192 100//192
f 104//193 105//193 100//193
f 100//194 105//194 101//194
f 105//195 106//195 101//195
f 101//196 106//196 102//196
f 106//197 107//197 102//197
f 102//198 107//198 103//198
f 179//199 127//199 7//199
f 174//200 180//200 104//200
f 180//201 181//201 104//201
f 182//202 183//202 105//202
f 184//203 185//203 106//203
f 186//204 187//204 107//204
f 2//205 13//205 1//205
f 3//206 108//206 2//206
f 4//207 109//207 3//207
f 5//208 111//208 4//208
f 6//209 114//209 5//209
f 7//210 118//210 6//210
f 127//211 190//211 7//211
f 2//212 108//212 13//212
f 108//213 12//213 13//213
f 3//214 109//214 108//214
f 109//215 110//215 108//215
f 108//216 110//216 12//216
f 110//217 11//217 12//217
f 4//218 111//218 109//218
f 111//219 112//219 109//219
f 109//220 112//220 110//220
f 112//221 113//221 110//221
f 110//222 113//222 11//222
f 113//223 10//223 11//223
f 5//224 114//224 111//224
f 114//225 115//225 111//225
f 111//226 115//226 112//226
f 115//227 116//227 112//227
f 112//228 116//228 113//228
f 116//229 117//229 113//229
f 113//230 117//230 10//230
f 117//231 9//231 10//231
f 6//232 118//232 114//232
f 118//233 119//233 114//233
f 114//234 119//234 115//234
f 119//235 120//235 115//235
f 115//236 120//236 116//236
f 120//237 121//237 116//237
f 116//238 121//238 117//238
f 121//239 122//239 117//239
f 117//240 122//240 9//240
f 122//241 8//241 9//241
f 188//242 123//242 118//242 191//242
f 118//243 123//243 119//243
f 123//244 124//244 119//244
f 119//245 124//245 120//245
f 124//246 125//246 120//246
f 120//247 125//247 121//247
f 125//248 126//248 121//248
f 121//249 126//249 122//249
f 193//250 128//250 8//250
f 188//251 194//251 123//251
f 194//252 195//252 123//252
f 196//253 197//253 124//253
f 198//254 199//254 125//254
f 200//255 201//255 126//255
f 125//256 199//256 200//256 126//256
f 124//257 197//257 198//257 125//257
f 123//258 195//258 196//258 124//258
f 122//259 192//259 193//259 8//259
f 7//260 190//260 191//260 118//260
f 126//261 189//261 192//261 122//261
f 126//262 201//262 189//262
f 106//263 185//263 186//263 107//263
f 105//264 183//264 184//264 106//264
f 104//265 181//265 182//265 105//265
f 103//266 178//266 179//266 7//266
f 19//267 176//267 177//267 99//267
f 107//268 175//268 178//268 103//268
f 107//269 187//269 175//269
f 87//270 171//270 172//270 88//270
f 86//271 169//271 170//271 87//271
f 85//272 167//272 168//272 86//272
f 84//273 164//273 165//273 19//273
f 25//274 162//274 163//274 80//274
f 88//275 161//275 164//275 84//275
f 88//276 173//276 161//276
f 68//277 157//277 158//277 69//277
f 67//278 155//278 156//278 68//278
f 66//279 153//279 154//279 67//279
f 65//280 150//280 151//280 25//280
f 31//281 148//281 149//281 61//281
f 69//282 147//282 150//282 65//282
f 69//283 159//283 147//283
f 49//284 143//284 144//284 50//284
f 48//285 141//285 142//285 49//285
f 47//286 139//286 140//286 48//286
f 46//287 136//287 137//287 31//287
f 8//288 134//288 135//288 42//288
f 50//289 133//289 136//289 46//289
f 50//290 145//290 133//290
